<svg width="70" height="70" viewBox="0 0 70 70" fill="none" xmlns="http://www.w3.org/2000/svg">
<circle cx="35" cy="35" r="35" fill="#9A3156"/>
<path d="M34.9809 18.2002C28.831 18.2002 23.7016 23.1542 23.7016 29.4795C23.7016 31.8859 24.4247 34.0317 25.8125 36.0424L34.1177 49.0019C34.5206 49.6319 35.442 49.6307 35.8441 49.0019L44.1854 35.9983C45.5433 34.0787 46.2602 31.8247 46.2602 29.4795C46.2602 23.2601 41.2003 18.2002 34.9809 18.2002ZM34.9809 34.6064C32.154 34.6064 29.8539 32.3063 29.8539 29.4795C29.8539 26.6526 32.154 24.3525 34.9809 24.3525C37.8078 24.3525 40.1079 26.6526 40.1079 29.4795C40.1079 32.3063 37.8078 34.6064 34.9809 34.6064Z" fill="white"/>
<path d="M42.997 41.7632L37.8337 49.8355C36.4972 51.9193 33.4571 51.9124 32.127 49.8375L26.9553 41.7653C22.405 42.8174 19.6 44.7446 19.6 47.0477C19.6 51.0441 27.5247 53.2 34.9809 53.2C42.437 53.2 50.3617 51.0441 50.3617 47.0477C50.3617 44.743 47.5528 42.8147 42.997 41.7632Z" fill="white"/>
</svg>
