<svg width="70" height="70" viewBox="0 0 70 70" fill="none" xmlns="http://www.w3.org/2000/svg">
<circle cx="35" cy="35" r="35" fill="#9A3156"/>
<path fill-rule="evenodd" clip-rule="evenodd" d="M36.1504 21.0078C33.2706 20.9111 30.4331 21.72 28.0372 23.3207C25.3433 25.1217 23.3704 27.8146 22.4652 30.9261C22.2201 30.8962 21.9266 30.9094 21.5781 31.0079C20.2768 31.3776 19.2986 32.4434 18.8585 33.3825C18.2874 34.6063 18.0466 36.2252 18.3006 37.8957C18.5527 39.5613 19.2564 40.9342 20.1365 41.7866C21.0192 42.6394 22.0159 42.9167 23.006 42.7085C24.4802 42.3939 25.2111 42.1584 25.0048 40.7855L24.0058 34.1275C24.1073 32.3154 24.6287 30.5517 25.5288 28.9757C26.4289 27.3997 27.6831 26.0546 29.1923 25.0466C31.2263 23.6858 33.6357 22.9971 36.0815 23.0773C38.5273 23.1575 40.8865 24.0026 42.8269 25.4936C44.1666 26.5208 45.2683 27.8256 46.0563 29.3186C46.8444 30.8115 47.3002 32.4572 47.3924 34.1429L46.6936 38.8C45.9354 40.8784 44.6035 42.6993 42.8523 44.0514C41.1012 45.4036 39.0026 46.2315 36.7999 46.4393H33.8225C33.6403 46.4389 33.4599 46.4744 33.2915 46.544C33.123 46.6135 32.97 46.7155 32.8412 46.8443C32.7123 46.9731 32.6101 47.1261 32.5405 47.2944C32.4709 47.4628 32.4352 47.6433 32.4355 47.8254V48.5568C32.4351 48.739 32.4708 48.9195 32.5404 49.088C32.61 49.2564 32.7121 49.4094 32.841 49.5382C32.9699 49.6671 33.1229 49.7692 33.2914 49.8387C33.4598 49.9082 33.6403 49.9438 33.8225 49.9434H37.5766C37.7586 49.9437 37.9389 49.908 38.1071 49.8384C38.2753 49.7689 38.4281 49.6667 38.5567 49.5379C38.6853 49.4091 38.7871 49.2562 38.8565 49.0879C38.9258 48.9196 38.9612 48.7393 38.9606 48.5573V48.1744C42.3335 47.3485 45.2719 45.2833 47.1913 42.3895L48.394 42.7085C49.3727 42.9624 50.3813 42.639 51.2636 41.7866C52.1437 40.9338 52.8469 39.5613 53.0995 37.8957C53.3547 36.2248 53.1065 34.6089 52.5424 33.3825C51.976 32.156 51.1325 31.3772 50.1586 31.0977C49.7507 30.9802 49.308 30.9371 48.9282 30.9261C48.1108 28.112 46.4165 25.6322 44.092 23.8479C41.8071 22.0937 39.0295 21.1004 36.1504 21.0078Z" fill="white"/>
<path fill-rule="evenodd" clip-rule="evenodd" d="M40.5448 32.9854C41.0216 32.986 41.4788 33.1757 41.816 33.513C42.1532 33.8503 42.3428 34.3075 42.3433 34.7844C42.3424 35.2612 42.1526 35.7183 41.8155 36.0555C41.4783 36.3927 41.0212 36.5825 40.5443 36.5833C40.0669 36.5834 39.609 36.394 39.2712 36.0567C38.9334 35.7194 38.7433 35.2618 38.7427 34.7844C38.7429 34.5479 38.7895 34.3138 38.8802 34.0954C38.9708 33.877 39.1035 33.6786 39.2708 33.5115C39.4381 33.3444 39.6367 33.2119 39.8552 33.1216C40.0737 33.0312 40.3079 32.9848 40.5443 32.985L40.5448 32.9854ZM35.6998 32.9854C36.0555 32.9856 36.4032 33.0913 36.6989 33.289C36.9946 33.4868 37.2251 33.7678 37.3611 34.0965C37.4971 34.4252 37.5327 34.7868 37.4632 35.1357C37.3937 35.4846 37.2224 35.805 36.9708 36.0566C36.7192 36.3081 36.3987 36.4794 36.0498 36.5487C35.7009 36.6181 35.3392 36.5825 35.0106 36.4464C34.6819 36.3103 34.401 36.0798 34.2033 35.784C34.0056 35.4883 33.9 35.1405 33.9 34.7848C33.8997 34.5484 33.9461 34.3142 34.0365 34.0958C34.1269 33.8773 34.2594 33.6788 34.4266 33.5116C34.5938 33.3445 34.7923 33.2119 35.0107 33.1215C35.2292 33.0312 35.4634 32.9852 35.6998 32.9854ZM30.8561 32.9854C31.0957 32.9801 31.3339 33.0227 31.5568 33.1108C31.7797 33.1988 31.9828 33.3305 32.1541 33.498C32.3254 33.6656 32.4615 33.8657 32.5545 34.0866C32.6474 34.3075 32.6953 34.5447 32.6953 34.7844C32.6953 35.024 32.6474 35.2612 32.5545 35.4821C32.4615 35.703 32.3254 35.9031 32.1541 36.0707C31.9828 36.2383 31.7797 36.3699 31.5568 36.458C31.3339 36.546 31.0957 36.5886 30.8561 36.5833C30.3838 36.5759 29.9334 36.3831 29.602 36.0465C29.2706 35.7099 29.0849 35.2565 29.0849 34.7841C29.0849 34.3118 29.2706 33.8584 29.602 33.5218C29.9334 33.1852 30.3838 32.9928 30.8561 32.9854ZM35.6998 25.2563C30.4235 25.2563 26.1718 29.3682 26.1718 34.7839C26.1718 37.3851 27.1553 39.6839 28.7575 41.3706L28.189 43.9194C28.0015 44.7582 28.5832 45.3223 29.3375 44.9025L31.826 43.5141C33.0487 44.0435 34.3674 44.3153 35.6998 44.3124C40.9778 44.3124 45.2269 40.2032 45.2269 34.7852C45.2269 29.3691 40.9778 25.2572 35.6998 25.2572V25.2563Z" fill="white"/>
</svg>
